# xmcd CD database file
#
# Track frame offsets:
#	150
#	26474
#	50154
#	68332
#	79133
#	96630
#	121482
#	130931
#	150899
#	163079
#	181870
#	197684
#	211790
#	225753
#	235990
#	250991
#	269220
#	279610
#	290722
#	307729
#	317276
#	332759
#	341310
#
# Disc length: 4790 seconds
#
# Revision: 1
# Processed by: cddbd v1.5.2PL0 Copyright (c) Steve Scherf et al.
# Submitted via: CDex 1.70beta2
#
DISCID=4012b417
DTITLE=Breakout - Mira and Blackout
DYEAR=1999
DGENRE=Blues
TTITLE0=Do Kogo Idziesz
TTITLE1=W Co Mam Wierzyc
TTITLE2=Tysiac Razy Kocham
TTITLE3=Zapytam Ptakow
TTITLE4=Kwiaty Nam Powiedly
TTITLE5=A Miales Przyjsc
TTITLE6=Byles Wesnie Tylko
TTITLE7=Luiza
TTITLE8=Mialam Caly Swiat
TTITLE9=Pozwolcie Nam Zyc
TTITLE10=Czy Znasz Ten Zwyczaj
TTITLE11=Nie Przechodz Obok Nas
TTITLE12=Powiedz Swoje Imie
TTITLE13=Te Bomby Leca Na Nasz Dom
TTITLE14=Gdzie Chcesz Isc
TTITLE15=Wyspa
TTITLE16=O Dziewczynie, Psie I Jablku
TTITLE17=Jej Nie Ma Tu
TTITLE18=Uwierz Mamo
TTITLE19=Popatrz To Przeciez Ja
TTITLE20=Anna
TTITLE21=Poszlabym Za Toba (live)
TTITLE22=Na Drugim Brzegu Teczy (live)
EXTD=YEAR: 1999
EXTT0=
EXTT1=
EXTT2=
EXTT3=
EXTT4=
EXTT5=
EXTT6=
EXTT7=
EXTT8=
EXTT9=
EXTT10=
EXTT11=
EXTT12=
EXTT13=
EXTT14=
EXTT15=
EXTT16=
EXTT17=
EXTT18=
EXTT19=
EXTT20=
EXTT21=
EXTT22=
PLAYORDER=
